<?xml version="1.0" encoding="UTF-8"?>
<svg version="1.1" xmlns="http://www.w3.org/2000/svg" width="1024" height="1024">
<path d="M0,0 L1024,0 L1024,1024 L0,1024 Z " fill="#FDFDFD" transform="translate(0,0)"/>
<path d="M0,0 L18,0 L39,2 L58,7 L75,13 L92,21 L108,31 L121,42 L131,51 L140,61 L151,76 L161,93 L169,111 L173,125 L176,136 L178,150 L178,185 L175,204 L167,230 L157,251 L147,266 L134,282 L125,291 L123,292 L125,296 L128,299 L143,299 L151,304 L159,314 L171,328 L179,338 L193,355 L204,369 L214,381 L217,388 L217,406 L213,417 L208,425 L199,433 L189,438 L180,440 L169,440 L157,435 L148,428 L137,415 L129,405 L117,391 L110,382 L99,369 L90,358 L84,349 L84,337 L86,331 L79,322 L69,325 L59,329 L43,333 L17,336 L-2,336 L-23,333 L-40,329 L-60,321 L-77,312 L-93,301 L-108,288 L-116,280 L-129,263 L-140,245 L-148,227 L-152,216 L-156,198 L-158,186 L-158,150 L-155,130 L-148,108 L-138,87 L-129,73 L-121,62 L-109,49 L-99,39 L-84,28 L-67,18 L-50,10 L-30,4 L-15,1 Z " fill="#243350" transform="translate(697,364)"/>
<path d="M0,0 L305,0 L317,3 L329,9 L338,17 L346,29 L350,42 L350,56 L331,60 L327,60 L326,46 L323,38 L318,31 L312,27 L306,25 L244,25 L237,31 L234,37 L276,37 L287,40 L293,44 L294,48 L285,55 L275,58 L261,60 L251,62 L245,63 L214,65 L209,66 L223,67 L273,68 L288,69 L286,71 L247,80 L198,90 L182,94 L191,105 L205,125 L209,130 L209,132 L199,140 L187,151 L173,162 L162,171 L151,179 L134,191 L113,205 L97,215 L75,228 L39,246 L13,257 L4,259 L3,250 L4,175 L5,147 L8,114 L10,105 L12,103 L15,95 L18,90 L25,83 L27,83 L28,80 L40,76 L43,76 L43,74 L60,70 L80,68 L111,67 L109,66 L54,63 L30,60 L19,56 L15,52 L24,43 L32,39 L36,37 L73,37 L68,29 L62,25 L0,25 L-10,30 L-16,37 L-19,44 L-20,267 L-39,272 L-43,272 L-43,41 L-40,31 L-31,17 L-22,9 L-8,2 Z " fill="#5DD8F7" transform="translate(309,174)"/>
<path d="M0,0 L29,0 L48,4 L65,10 L82,19 L94,28 L97,30 L97,32 L101,34 L109,42 L119,55 L129,73 L136,91 L140,110 L140,140 L136,160 L129,178 L121,193 L112,205 L103,215 L92,225 L77,235 L58,244 L48,247 L36,250 L29,251 L0,251 L-15,249 L-36,242 L-53,233 L-67,223 L-79,212 L-90,199 L-99,183 L-105,170 L-111,149 L-113,137 L-113,116 L-111,100 L-105,80 L-93,57 L-83,44 L-77,37 L-69,30 L-59,22 L-44,13 L-28,6 L-9,1 Z " fill="#DCE8EE" transform="translate(693,406)"/>
<path d="M0,0 L10,3 L23,7 L23,90 L20,101 L14,113 L5,123 L-6,130 L-21,134 L-328,134 L-341,130 L-351,123 L-355,120 L-355,118 L-358,117 L-365,106 L-369,96 L-370,92 L-370,29 L-360,33 L-335,43 L-316,49 L-300,53 L-265,59 L-239,61 L-209,61 L-189,60 L-157,56 L-135,52 L-17,51 L-7,46 L-2,39 L-1,36 Z " fill="#374666" transform="translate(636,704)"/>
<path d="M0,0 L2,4 L11,33 L21,58 L33,83 L45,103 L56,119 L69,135 L79,145 L84,150 L97,162 L115,175 L134,186 L153,195 L177,203 L199,208 L225,210 L244,210 L270,207 L300,200 L313,196 L325,191 L345,182 L366,171 L380,162 L398,149 L412,138 L414,138 L424,156 L434,169 L446,183 L459,195 L472,205 L485,213 L489,216 L479,222 L463,230 L443,239 L428,245 L399,254 L368,262 L344,266 L317,269 L300,270 L265,270 L229,266 L200,260 L174,252 L150,242 L127,230 L108,217 L94,206 L84,197 L78,192 L71,184 L62,174 L52,161 L39,141 L27,119 L20,103 L12,81 L5,53 L1,30 L0,22 Z " fill="#2661A2" transform="translate(128,478)"/>
<path d="M0,0 L5,0 L2,5 L-12,23 L-25,41 L-39,59 L-51,75 L-63,90 L-77,109 L-91,127 L-93,130 L-97,128 L-105,116 L-112,106 L-112,103 L-121,108 L-134,117 L-163,136 L-169,140 L-112,141 L-106,145 L-106,158 L-115,167 L-125,180 L-135,195 L-145,214 L-151,230 L-157,251 L-160,270 L-160,302 L-157,326 L-153,342 L-150,353 L-151,357 L-161,366 L-177,378 L-184,383 L-186,383 L-187,152 L-201,160 L-218,170 L-234,179 L-257,191 L-273,199 L-294,209 L-327,222 L-351,230 L-368,235 L-389,240 L-412,244 L-434,246 L-479,246 L-479,244 L-457,241 L-422,233 L-391,223 L-364,213 L-353,209 L-341,203 L-325,195 L-302,183 L-289,176 L-268,163 L-249,151 L-232,139 L-214,126 L-193,110 L-180,99 L-171,92 L-157,80 L-147,71 L-140,65 L-146,56 L-158,40 L-159,36 L-129,29 L-94,21 L-66,15 L-38,8 Z " fill="#FBC012" transform="translate(682,243)"/>
<path d="M0,0 L10,0 L31,3 L47,7 L62,12 L81,22 L92,29 L106,41 L115,49 L126,63 L136,78 L141,87 L145,96 L151,112 L155,129 L157,147 L157,162 L156,173 L155,174 L154,184 L148,205 L140,223 L130,239 L116,256 L104,268 L91,278 L78,286 L64,293 L50,299 L28,304 L7,306 L-8,306 L-32,302 L-52,296 L-68,289 L-79,282 L-93,272 L-106,260 L-114,252 L-124,238 L-132,225 L-139,210 L-145,192 L-149,170 L-149,137 L-147,121 L-137,91 L-130,77 L-120,62 L-109,49 L-96,36 L-86,28 L-71,19 L-52,10 L-36,5 L-27,3 Z M-11,29 L-24,31 L-42,36 L-59,44 L-74,54 L-86,65 L-91,69 L-104,86 L-116,109 L-122,129 L-124,145 L-124,166 L-120,186 L-114,204 L-103,225 L-95,235 L-83,248 L-70,258 L-57,266 L-42,273 L-26,278 L-11,280 L18,280 L33,277 L44,274 L60,267 L74,259 L88,248 L99,237 L110,222 L120,203 L126,185 L129,169 L129,139 L124,117 L118,102 L108,84 L100,74 L91,64 L88,61 L86,61 L86,59 L71,48 L52,38 L33,32 L18,29 Z " fill="#384E70" transform="translate(704,377)"/>
<path d="M0,0 L305,0 L317,3 L329,9 L338,17 L346,29 L350,42 L350,56 L331,60 L327,60 L326,46 L323,38 L318,31 L312,27 L306,25 L244,25 L237,31 L230,44 L223,50 L214,53 L93,53 L84,50 L76,43 L70,31 L64,26 L62,25 L0,25 L-10,30 L-16,37 L-19,44 L-20,267 L-39,272 L-43,272 L-43,41 L-40,31 L-31,17 L-22,9 L-8,2 Z " fill="#2C3B5A" transform="translate(309,174)"/>
<path d="M0,0 L73,0 L79,4 L79,186 L65,194 L46,202 L29,208 L20,211 L0,215 Z " fill="#EE9F07" transform="translate(399,451)"/>
<path d="M0,0 L4,4 L8,12 L-1,19 L-16,29 L-42,46 L-48,50 L9,51 L15,55 L15,68 L6,77 L-4,90 L-14,105 L-24,124 L-30,140 L-36,161 L-39,180 L-39,212 L-36,236 L-32,252 L-29,263 L-30,267 L-40,276 L-56,288 L-63,293 L-65,293 L-66,62 L-80,70 L-97,80 L-113,89 L-136,101 L-152,109 L-173,119 L-206,132 L-230,140 L-247,145 L-268,150 L-291,154 L-313,156 L-358,156 L-358,154 L-317,151 L-301,148 L-268,141 L-250,136 L-235,131 L-218,126 L-209,122 L-185,112 L-156,98 L-134,87 L-110,73 L-90,61 L-66,46 L-47,33 L-33,23 L-13,9 Z " fill="#EC6A17" transform="translate(561,333)"/>
<path d="M0,0 L73,0 L79,4 L79,166 L40,166 L19,163 L0,158 Z " fill="#67C243" transform="translate(302,503)"/>
<path d="M0,0 L10,3 L23,7 L23,90 L20,101 L14,113 L5,123 L-6,130 L-21,134 L-328,134 L-341,130 L-351,123 L-355,120 L-355,118 L-358,117 L-365,106 L-369,96 L-370,92 L-370,29 L-360,33 L-347,39 L-346,85 L-343,95 L-339,101 L-330,109 L-320,112 L-29,112 L-20,110 L-11,104 L-5,97 L-1,85 L-1,36 Z " fill="#1C2944" transform="translate(636,704)"/>
<path d="M0,0 L29,0 L48,4 L65,10 L82,19 L94,28 L97,30 L97,32 L101,34 L109,42 L119,55 L129,73 L136,91 L140,110 L140,140 L136,160 L129,178 L121,193 L112,205 L103,215 L92,225 L77,235 L58,244 L48,247 L36,250 L29,251 L0,251 L-15,249 L-36,242 L-53,233 L-67,223 L-79,212 L-90,199 L-99,183 L-105,170 L-111,149 L-113,137 L-113,116 L-111,100 L-105,80 L-93,57 L-83,44 L-77,37 L-69,30 L-59,22 L-44,13 L-28,6 L-9,1 Z M3,15 L-8,16 L-28,22 L-45,31 L-56,39 L-66,48 L-76,59 L-86,75 L-93,91 L-97,109 L-98,117 L-98,137 L-95,153 L-90,168 L-83,182 L-74,195 L-65,205 L-55,214 L-42,222 L-28,229 L-12,234 L1,236 L27,236 L46,232 L59,227 L76,218 L88,209 L98,199 L107,187 L113,176 L118,165 L122,152 L125,133 L125,119 L122,99 L116,81 L108,66 L98,53 L91,45 L81,37 L67,28 L59,24 L38,17 L26,15 Z " fill="#FBFBFC" transform="translate(693,406)"/>
<path d="M0,0 L22,0 L22,21 L30,21 L46,26 L57,32 L63,37 L61,42 L50,60 L40,54 L28,49 L19,47 L1,47 L-7,51 L-11,57 L-11,64 L-8,69 L0,73 L22,79 L34,82 L47,87 L58,95 L64,102 L68,110 L69,117 L69,132 L65,143 L59,151 L50,159 L37,165 L28,167 L22,167 L22,189 L-1,189 L-1,168 L-9,167 L-27,161 L-38,155 L-50,146 L-48,142 L-36,126 L-34,123 L-29,125 L-19,132 L-8,137 L4,140 L18,140 L26,138 L34,133 L36,128 L36,121 L34,116 L29,114 L15,109 L-11,103 L-25,97 L-34,90 L-40,82 L-43,74 L-44,68 L-44,57 L-41,47 L-35,38 L-27,30 L-13,23 L-5,21 L0,21 Z " fill="#49AD40" transform="translate(696,436)"/>
<path d="M0,0 L27,0 L34,6 L34,139 L26,136 L8,126 L-5,117 L-16,108 L-22,102 L-25,95 L-25,98 L-27,98 L-28,94 L-32,92 L-40,83 L-46,75 L-46,55 L-45,44 L-46,42 L-46,5 L-42,1 Z " fill="#82E5FA" transform="translate(250,515)"/>
<path d="M0,0 L5,1 L11,10 L11,12 L23,12 L32,1 L38,3 L47,8 L46,15 L43,23 L48,31 L48,33 L64,33 L66,40 L66,51 L53,54 L50,66 L58,77 L52,84 L46,89 L41,87 L35,82 L29,83 L24,84 L22,94 L20,99 L8,99 L3,97 L3,82 L-1,81 L-5,78 L-9,79 L-19,83 L-22,82 L-29,71 L-28,67 L-20,60 L-20,49 L-25,48 L-35,44 L-34,36 L-30,27 L-14,28 L-9,23 L-8,20 L-12,9 L-12,6 Z " fill="#4EB845" transform="translate(183,262)"/>
<path d="M0,0 L6,1 L47,3 L77,6 L90,8 L92,11 L83,14 L59,17 L6,20 L-38,21 L-274,21 L-290,20 L-342,18 L-367,16 L-386,13 L-388,12 L-388,9 L-383,7 L-348,3 L-345,2 L-340,5 L-329,8 L-22,8 L-7,4 Z " fill="#AFBFD4" transform="translate(637,829)"/>
<path d="M0,0 L18,4 L31,6 L66,6 L86,3 L97,1 L95,6 L88,18 L79,30 L68,43 L50,61 L36,72 L21,83 L0,96 L-4,96 L-1,83 Z " fill="#B9CEDB" transform="translate(659,711)"/>
<path d="M0,0 L6,0 L15,9 L24,20 L36,34 L47,48 L59,62 L67,72 L72,78 L73,80 L73,92 L72,93 L65,94 L58,99 L55,100 L44,100 L36,93 L24,79 L15,68 L3,54 L-10,38 L-19,27 L-22,22 L-22,20 L-24,19 L-14,10 L-4,3 Z " fill="#2C8AC9" transform="translate(825,672)"/>
<path d="M0,0 L4,4 L8,12 L-1,19 L-16,29 L-42,46 L-48,50 L-51,50 L-51,52 L-3,52 L-3,53 L-54,53 L-55,56 L-66,62 L-80,70 L-97,80 L-113,89 L-136,101 L-152,109 L-173,119 L-206,132 L-230,140 L-247,145 L-268,150 L-291,154 L-313,156 L-358,156 L-358,154 L-317,151 L-301,148 L-268,141 L-250,136 L-235,131 L-218,126 L-209,122 L-185,112 L-156,98 L-134,87 L-110,73 L-90,61 L-66,46 L-47,33 L-33,23 L-13,9 Z " fill="#DB8906" transform="translate(561,333)"/>
<path d="M0,0 L7,1 L11,4 L11,166 L-28,166 L-40,163 L-34,156 L-29,152 L-15,148 L-7,144 L-6,7 Z " fill="#308533" transform="translate(370,503)"/>
<path d="M0,0 L1,0 L1,36 L-3,44 L-9,49 L-16,52 L-133,52 L-133,51 L-120,51 L-120,49 L-98,44 L-80,38 L-68,33 L-48,25 L-30,17 L-20,11 L-4,3 L0,2 Z " fill="#D1F1F8" transform="translate(635,704)"/>
<path d="M0,0 L62,0 L71,4 L77,9 L81,15 L82,22 L81,37 L72,40 L58,43 L48,46 L29,45 L-21,44 L-50,42 L-50,41 L1,38 L15,36 L24,34 L35,32 L44,28 L49,24 L48,20 L41,16 L32,14 L-10,13 L-8,7 Z " fill="#C1F0FC" transform="translate(553,198)"/>
<path d="M0,0 L4,1 L10,6 L10,139 L2,136 L-8,130 L-8,8 Z " fill="#145E7C" transform="translate(274,515)"/>
<path d="M0,0 L2,0 L10,18 L18,27 L28,33 L37,37 L41,38 L41,40 L25,47 L15,54 L6,68 L2,79 L-1,75 L-6,64 L-12,55 L-19,49 L-33,42 L-38,40 L-38,38 L-23,32 L-13,25 L-6,15 L-1,3 Z " fill="#FBAA0E" transform="translate(774,193)"/>
<path d="M0,0 L3,1 L10,12 L19,22 L29,35 L37,44 L46,55 L58,69 L67,79 L69,80 L80,80 L88,76 L90,74 L97,73 L98,65 L99,65 L99,76 L96,83 L89,91 L86,93 L83,93 L83,95 L80,96 L67,96 L58,92 L49,82 L40,71 L29,58 L20,47 L9,34 L0,23 L-6,14 L-6,7 Z " fill="#255395" transform="translate(800,691)"/>
<path d="M0,0 L2,0 L12,18 L22,31 L34,45 L47,57 L60,67 L73,75 L77,78 L67,84 L62,85 L48,76 L37,67 L25,56 L13,43 L3,30 L-6,14 L-8,6 Z " fill="#1F3D71" transform="translate(540,616)"/>
<path d="M0,0 L4,2 L17,12 L37,24 L51,32 L56,33 L55,92 L54,92 L54,74 L52,74 L45,66 L33,53 L19,34 L6,13 L0,2 Z " fill="#B8CDDA" transform="translate(211,699)"/>
<path d="M0,0 L2,1 L-11,18 L-23,34 L-35,50 L-51,71 L-62,85 L-78,106 L-90,122 L-96,130 L-99,129 L-99,122 L-90,106 L-77,88 L-69,77 L-55,60 L-46,49 L-34,35 L-23,21 L-16,13 L-11,6 Z " fill="#DC8B08" transform="translate(685,243)"/>
<path d="M0,0 L6,0 L15,9 L24,20 L36,34 L47,48 L59,62 L67,72 L72,78 L73,80 L73,92 L72,93 L66,93 L64,89 L65,87 L63,87 L63,83 L60,82 L60,79 L56,77 L44,63 L35,52 L22,37 L13,26 L1,13 L-2,9 L-3,3 Z " fill="#8AC4E4" transform="translate(825,672)"/>
<path d="M0,0 L3,1 L-8,7 L-29,13 L-47,19 L-70,25 L-87,30 L-119,37 L-139,41 L-154,41 L-155,44 L-159,39 L-159,36 L-129,29 L-94,21 L-66,15 L-38,8 Z " fill="#FDE469" transform="translate(682,243)"/>
<path d="M0,0 L8,1 L14,4 L19,10 L21,14 L21,23 L16,31 L11,35 L5,37 L-5,36 L-13,30 L-16,23 L-16,13 L-12,7 L-6,2 Z " fill="#FAFCFA" transform="translate(197,292)"/>
<path d="M0,0 L1,0 L2,226 L-19,230 L-36,232 L-34,227 L-25,214 L-14,201 L-2,186 L-1,186 Z " fill="#B5C8D5" transform="translate(265,221)"/>
<path d="M0,0 L61,0 L65,5 L64,10 L60,14 L0,14 L-4,9 L-3,2 Z " fill="#FAFBFB" transform="translate(432,786)"/>
<path d="M0,0 L2,1 L-3,6 L-13,14 L-18,17 L-26,20 L-28,22 L-49,29 L-70,32 L-96,32 L-111,30 L-128,25 L-143,19 L-155,11 L-158,5 L-153,6 L-137,14 L-124,19 L-103,24 L-95,25 L-70,25 L-50,22 L-26,14 L-10,6 Z " fill="#98BBD9" transform="translate(788,645)"/>
<path d="M0,0 L3,4 L8,14 L18,21 L26,24 L22,27 L12,32 L7,37 L1,49 L-1,46 L-7,35 L-16,29 L-25,25 L-23,23 L-9,16 L-3,7 Z " fill="#FDAC12" transform="translate(174,400)"/>
<path d="M0,0 L1,0 L1,44 L-16,49 L-22,51 L-22,29 L-15,21 L-2,2 Z " fill="#222F4D" transform="translate(658,309)"/>
<path d="M0,0 L2,0 L12,18 L22,31 L30,41 L31,46 L29,46 L29,48 L25,51 L23,51 L22,53 L13,43 L3,30 L-6,14 L-8,6 Z " fill="#214C84" transform="translate(540,616)"/>
<path d="M0,0 L3,4 L7,12 L15,18 L22,21 L18,24 L8,30 L1,43 L-1,40 L-6,31 L-11,27 L-21,22 L-20,20 L-8,15 L-4,10 Z " fill="#63DBF6" transform="translate(734,280)"/>
<path d="M0,0 L2,0 L2,16 L7,17 L18,24 L32,34 L37,38 L37,40 L16,42 L1,44 Z " fill="#BCCFDC" transform="translate(658,308)"/>
<path d="M0,0 L2,3 L6,11 L13,17 L21,20 L21,22 L10,26 L5,32 L1,41 L-1,41 L-4,34 L-8,28 L-20,22 L-20,20 L-7,13 Z " fill="#FDA914" transform="translate(707,177)"/>
<path d="M0,0 L57,0 L59,2 L59,7 L57,9 L0,9 L-3,6 L-2,1 Z " fill="#F9FAFA" transform="translate(434,199)"/>
<path d="M0,0 L2,0 L1,9 L-4,17 L-9,21 L-18,24 L-51,24 L-47,21 L-27,13 L-9,5 Z " fill="#86E8FC" transform="translate(614,716)"/>
<path d="M0,0 L2,1 L-1,5 L-8,7 L-10,7 L-11,12 L-27,17 L-28,19 L-44,23 L-67,28 L-74,29 L-99,31 L-107,31 L-107,30 L-90,27 L-58,20 L-27,10 Z " fill="#FDD52C" transform="translate(318,456)"/>
<path d="M0,0 L4,1 L9,4 L9,17 L0,26 L-6,33 L-7,33 L-7,9 Z " fill="#DC430E" transform="translate(567,384)"/>
<path d="M0,0 L3,0 L7,5 L7,7 L-2,14 L-9,19 L-13,17 L-16,13 L-15,10 L-1,1 Z " fill="#324567" transform="translate(807,666)"/>
<path d="M0,0 L2,1 L-1,5 L-8,7 L-10,7 L-11,12 L-27,17 L-40,17 L-42,15 L-13,5 Z " fill="#FDD94C" transform="translate(318,456)"/>
<path d="M0,0 L2,1 L-10,13 L-21,30 L-28,44 L-32,61 L-33,77 L-34,77 L-35,61 L-31,46 L-21,21 L-15,13 L-3,2 Z " fill="#D2E0E9" transform="translate(649,453)"/>
<path d="M0,0 L1,0 L1,9 L0,14 L-2,30 L-2,40 L-3,45 L-4,75 L-5,154 L-6,154 L-7,145 L-6,70 L-5,42 L-2,9 Z " fill="#9FECFA" transform="translate(319,279)"/>
<path d="M0,0 L69,0 L67,2 L5,2 L1,3 L1,95 L0,95 Z " fill="#FBCA17" transform="translate(399,451)"/>
<path d="M0,0 L24,8 L31,10 L32,13 L15,13 L15,11 L10,11 L1,4 L0,6 Z " fill="#145379" transform="translate(289,743)"/>
<path d="M0,0 L43,0 L43,1 L0,2 Z M-2,2 L0,3 L-2,5 L-2,42 L-1,47 L-2,56 L-2,71 L-4,75 L-4,4 Z " fill="#C9F3FC" transform="translate(207,515)"/>
<path d="M0,0 L2,1 L-3,6 L-13,14 L-18,17 L-26,20 L-30,22 L-29,19 L-34,18 L-31,16 L-13,8 Z " fill="#6C92B7" transform="translate(788,645)"/>
<path d="M0,0 L5,0 L1,2 L0,3 L4,5 L-41,5 L-41,3 Z " fill="#E48B10" transform="translate(244,484)"/>
<path d="M0,0 L5,1 L19,8 L19,10 L24,12 L24,15 L20,16 L10,11 L3,6 Z " fill="#87A9CC" transform="translate(630,650)"/>
<path d="M0,0 L9,2 L6,4 L-7,6 L-32,8 L-40,8 L-40,7 L-23,4 L-14,2 L-3,2 Z " fill="#FDC621" transform="translate(251,479)"/>
<path d="M0,0 L5,1 L7,4 L6,10 L4,12 L-2,11 L-4,8 L-4,3 Z " fill="#495E7F" transform="translate(516,199)"/>
<path d="M0,0 L1,0 L3,16 L3,40 L1,41 L-1,5 Z " fill="#32415F" transform="translate(846,504)"/>
<path d="M0,0 L4,1 L6,11 L4,18 L1,19 L0,13 Z " fill="#EAF3F6" transform="translate(796,497)"/>
<path d="M0,0 L18,6 L18,7 L13,7 L14,10 L10,11 L1,4 L0,6 Z " fill="#245278" transform="translate(289,743)"/>
<path d="M0,0 L9,0 L5,3 L-7,4 L-32,3 L-32,2 Z " fill="#A3E9FB" transform="translate(535,237)"/>
<path d="M0,0 L8,0 L7,7 L-1,7 L-2,2 Z " fill="#7FDD72" transform="translate(221,391)"/>
<path d="M0,0 L3,3 L5,10 L7,14 L5,14 L6,16 L8,16 L9,21 L7,21 L5,23 L0,8 Z " fill="#4C6789" transform="translate(837,472)"/>
<path d="M0,0 L36,1 L36,2 L3,3 L-5,12 L-7,11 L-2,5 Z " fill="#4BC8EF" transform="translate(542,210)"/>
<path d="M0,0 L2,4 L4,11 L3,18 L2,24 L0,22 Z " fill="#2A4679" transform="translate(128,478)"/>
<path d="M0,0 L2,1 L-1,5 L-8,7 L-10,7 L-11,9 L-16,9 L-16,6 Z " fill="#FDDE60" transform="translate(318,456)"/>
<path d="M0,0 L22,0 L22,1 L6,2 L2,3 L1,20 L0,20 Z " fill="#6ECA49" transform="translate(696,436)"/>
<path d="M0,0 L5,1 L14,6 L15,8 L11,9 L2,4 Z " fill="#8BADCE" transform="translate(630,650)"/>
<path d="M0,0 L4,0 L2,5 L-2,8 L-4,7 L-3,5 L-8,4 L-5,2 Z " fill="#88ACCB" transform="translate(762,659)"/>
<path d="M0,0 L5,0 L0,4 L-7,7 L-7,4 Z " fill="#5A7FA7" transform="translate(773,656)"/>
<path d="M0,0 L11,7 L13,9 L12,12 L10,12 L8,8 L0,2 Z " fill="#577498" transform="translate(619,641)"/>
<path d="M0,0 L14,0 L12,2 L2,3 Z M2,1 Z " fill="#51C6F3" transform="translate(583,243)"/>
<path d="M0,0 L8,2 L8,3 L3,3 L4,6 L2,7 L1,5 L-2,3 Z " fill="#1C5983" transform="translate(299,747)"/>
<path d="M0,0 L4,0 L5,3 L-12,3 L-12,2 L0,2 Z " fill="#18466A" transform="translate(316,753)"/>
<path d="M0,0 L2,1 L-6,9 L-9,8 Z " fill="#3A90C8" transform="translate(810,683)"/>
<path d="M0,0 L5,1 L11,5 L9,7 L0,1 Z " fill="#789ABD" transform="translate(633,655)"/>
<path d="M0,0 L2,1 L5,8 L4,11 L0,10 Z " fill="#6280A2" transform="translate(832,461)"/>
<path d="M0,0 L1,0 L0,14 L-2,16 L-3,11 L-1,5 Z " fill="#E25222" transform="translate(523,493)"/>
<path d="M0,0 L2,1 L0,4 L2,5 L0,8 L-4,3 L-4,1 Z " fill="#FEDB46" transform="translate(527,279)"/>
<path d="M0,0 L4,1 L0,7 L-2,4 L-2,1 Z " fill="#5AC053" transform="translate(173,267)"/>
<path d="M0,0 L3,1 L-6,5 L-7,2 Z " fill="#FCCD3B" transform="translate(682,243)"/>
<path d="M0,0 L3,1 L-3,7 L-6,6 Z " fill="#3F4E6B" transform="translate(283,186)"/>
<path d="M0,0 L2,1 L-3,6 L-6,6 L-2,1 Z " fill="#7499BE" transform="translate(764,660)"/>
<path d="M0,0 L6,0 L5,3 L-4,2 Z " fill="#FED73E" transform="translate(237,481)"/>
<path d="M0,0 L2,1 L1,4 L-7,4 L-3,1 Z " fill="#A2EDFD" transform="translate(570,736)"/>
<path d="M0,0 L3,3 L5,9 L1,8 L0,2 Z " fill="#5D799B" transform="translate(837,472)"/>
<path d="M0,0 L3,1 L-3,4 L-5,7 L-7,7 L-6,3 Z " fill="#FDE375" transform="translate(336,448)"/>
<path d="M0,0 L2,0 L1,7 L3,8 L-1,8 Z " fill="#5CC258" transform="translate(149,298)"/>
<path d="M0,0 L9,2 L9,3 L2,3 L-1,1 Z " fill="#FECC1A" transform="translate(251,479)"/>
<path d="M0,0 L2,0 L3,4 L1,4 L-1,8 L-2,6 Z " fill="#FDC438" transform="translate(774,193)"/>
<path d="M0,0 L2,0 L0,5 L-4,4 L-4,2 Z " fill="#FCB329" transform="translate(691,195)"/>
<path d="M0,0 L5,1 L7,3 L2,4 Z " fill="#95B5D3" transform="translate(630,650)"/>
<path d="M0,0 Z M-4,1 L0,2 L-1,4 L-9,4 L-5,2 Z " fill="#DA7B02" transform="translate(249,484)"/>
<path d="M0,0 L4,1 L-2,4 L-7,3 L-3,1 Z " fill="#FEDA4A" transform="translate(250,478)"/>
<path d="M0,0 L3,4 L2,6 L-2,7 L-1,2 Z " fill="#FDB823" transform="translate(174,400)"/>
</svg>
